<svg width="40" height="40" viewBox="0 0 40 40" fill="none" xmlns="http://www.w3.org/2000/svg">
<g clip-path="url(#clip0_16_7033)">
<path d="M24.1441 34.3666C23.8261 34.3666 23.5597 34.1178 23.542 33.7962C23.0009 23.9973 21.161 17.4012 19.7129 13.5933C18.1459 9.47249 16.6886 7.64205 16.674 7.62404C16.465 7.36495 16.5049 6.985 16.7634 6.77535C17.0222 6.566 17.4012 6.60475 17.6112 6.86293C17.6744 6.94075 19.1761 8.81239 20.8097 13.0809C22.3011 16.9783 24.195 23.7245 24.7474 33.73C24.7657 34.0629 24.5109 34.3473 24.178 34.3656C24.1667 34.3662 24.1554 34.3666 24.1441 34.3666Z" fill="#CFDBEA"/>
<path d="M10.7049 38.1895C10.693 38.1895 10.6808 38.1892 10.6689 38.1886C10.3359 38.1691 10.082 37.8834 10.1018 37.5505C10.7232 26.9856 6.03355 21.8401 5.98594 21.7894C5.75828 21.5459 5.77109 21.1638 6.01462 20.9361C6.25815 20.7085 6.63993 20.7213 6.86789 20.9648C6.921 21.0216 8.18381 22.3894 9.36179 25.139C10.4366 27.6479 11.6463 31.8495 11.307 37.6213C11.2877 37.942 11.0219 38.1895 10.7049 38.1895Z" fill="#CFDBEA"/>
<path d="M28.6267 35.6545C28.6203 35.6545 28.6142 35.6545 28.6081 35.6542C28.2748 35.6441 28.013 35.3661 28.0227 35.0328C28.1347 31.2963 28.5043 27.8652 29.1207 24.8351C29.9871 20.5791 31.3244 17.2634 33.096 14.9798C33.3001 14.7164 33.6795 14.6685 33.9428 14.8727C34.2062 15.0771 34.2541 15.4562 34.0496 15.7198C30.2117 20.6667 29.3823 29.966 29.2297 35.0689C29.2199 35.396 28.9517 35.6545 28.6267 35.6545Z" fill="#CFDBEA"/>
<path d="M6.39472 21.2413C11.8699 11.7568 0.864023 11.7568 6.33948 21.2413C0.864329 11.7568 -4.63859 21.2892 6.31171 21.2892C-4.6389 21.2892 0.864023 30.8214 6.33948 21.3372C0.864329 30.8214 11.8702 30.8214 6.39472 21.3372C11.8699 30.8214 17.3728 21.2892 6.42249 21.2892C17.3731 21.2892 11.8702 11.7571 6.39472 21.2413Z" fill="#CFDBEA"/>
<path d="M17.1496 7.11318C22.6247 -2.37106 11.6189 -2.37106 17.0944 7.11318C11.6192 -2.37106 6.11629 7.16109 17.0666 7.16109C6.11599 7.16109 11.6189 16.6932 17.0944 7.209C11.6192 16.6932 22.6251 16.6932 17.1496 7.209C22.6247 16.6932 28.1277 7.16109 17.1774 7.16109C28.128 7.16109 22.6251 -2.37106 17.1496 7.11318Z" fill="#CFDBEA"/>
<path d="M33.6604 15.2677C39.1355 5.78316 28.1297 5.78316 33.6048 15.2677C28.1297 5.78316 22.6268 15.3153 33.5774 15.3153C22.6268 15.3153 28.1297 24.8478 33.6048 15.3632C28.1297 24.8478 39.1355 24.8478 33.6604 15.3632C39.1355 24.8478 44.6384 15.3153 33.6878 15.3153C44.6384 15.3153 39.1355 5.78316 33.6604 15.2677Z" fill="#CFDBEA"/>
<path d="M33.0355 14.3486C33.0291 14.3599 33.023 14.3709 33.0166 14.3825C33.023 14.3712 33.0294 14.3602 33.0361 14.3492C33.0358 14.3489 33.0358 14.3489 33.0355 14.3486Z" fill="#CFDBEA"/>
<path d="M33.0439 14.43C33.0595 14.43 33.0748 14.4303 33.0903 14.4306C33.09 14.4303 33.09 14.43 33.0897 14.4297C33.0745 14.43 33.0595 14.43 33.0439 14.43Z" fill="#CFDBEA"/>
<path d="M33.5854 15.396C33.5674 15.3691 33.5497 15.3426 33.5317 15.3154C33.511 15.3154 33.4908 15.3157 33.4707 15.3157C33.496 15.3658 33.5204 15.4155 33.5449 15.4653C33.5586 15.4421 33.572 15.4195 33.5854 15.396Z" fill="#CFDBEA"/>
<path d="M15.3056 31.8873C13.651 33.5422 10.8171 33.3909 10.8171 33.3909C10.8171 33.3909 10.6657 30.5567 12.3204 28.9017C13.9751 27.2471 16.8089 27.3981 16.8089 27.3981C16.8089 27.3981 16.9603 30.2326 15.3056 31.8873Z" fill="#CFDBEA"/>
<path d="M33.5579 29.5509C31.7275 31.0087 28.9287 30.539 28.9287 30.539C28.9287 30.539 29.0975 27.7058 30.9282 26.248C32.7587 24.7902 35.5574 25.2595 35.5574 25.2595C35.5574 25.2595 35.3887 28.0928 33.5579 29.5509Z" fill="#CFDBEA"/>
<path d="M17.9751 21.2172C16.1663 19.7325 16.0391 16.8971 16.0391 16.8971C16.0391 16.8971 18.8445 16.469 20.6533 17.9534C22.4621 19.438 22.5893 22.2737 22.5893 22.2737C22.5893 22.2737 19.7839 22.7019 17.9751 21.2172Z" fill="#CFDBEA"/>
<path d="M39.9999 39.9999H0C0 39.9999 0.379943 37.7529 2.65594 37.1026C6.03637 36.1367 7.16307 37.7465 11.5896 37.6659C17.142 37.5649 19.7989 33.9639 24.3862 33.9639C28.5714 33.9639 29.2959 36.5392 33.1588 36.2978C37.022 36.0565 39.8391 37.5854 39.9999 39.9999Z" fill="#CFDBEA"/>
<path d="M33.1589 36.2978C29.296 36.5392 28.5715 33.9639 24.3863 33.9639C23.7693 33.9639 23.187 34.0295 22.6279 34.1424C25.3455 34.7216 26.3779 36.5002 29.618 36.2978C33.4809 36.0565 36.298 37.5854 36.4588 39.9999H40C39.8392 37.5854 37.0221 36.0565 33.1589 36.2978Z" fill="#CFDBEA"/>
</g>
<defs>
<clipPath id="clip0_16_7033">
<rect width="40" height="40" fill="white"/>
</clipPath>
</defs>
</svg>
