<svg width="40" height="40" viewBox="0 0 40 40" fill="none" xmlns="http://www.w3.org/2000/svg">
<g clip-path="url(#clip0_16_7043)">
<path d="M21.8325 4.81223C20.7668 4.42913 19.6382 4.25122 18.5064 4.28786C19.8737 0.858794 24.4172 -0.692827 29.3 0.291606C27.5583 1.40246 25.8116 3.69067 24.63 6.66108L24.6 6.7325C23.8317 5.89473 22.8863 5.23878 21.8325 4.81223ZM19.9187 13.5677C21.5076 13.5677 23.0056 13.6113 24.398 13.6935L23.2549 16.3588C22.2191 16.4024 21.126 16.4252 19.9187 16.4252C18.2242 16.4252 16.6183 16.3745 15.1238 16.2823L13.8915 13.8106C15.751 13.6514 17.7656 13.5677 19.9187 13.5677ZM6.5483 6.0853L0.606775 4.44648C0.423781 4.39608 0.268368 4.27497 0.17484 4.10987C0.0813112 3.94477 0.0573235 3.7492 0.108112 3.56636L0.115222 3.54065C0.219534 3.16083 0.611697 2.93713 0.99175 3.04058L7.55977 4.83442C7.7587 4.88998 7.92435 5.02804 8.01483 5.21377L13.4656 16.1503C12.8798 16.0965 12.3038 16.0334 11.7375 15.961L6.99766 6.45535C6.90718 6.27376 6.7438 6.13921 6.5483 6.0853ZM9.3601 14.3993L10.0138 15.7109C8.95535 15.5387 7.90888 15.3001 6.88046 14.9965C7.6962 14.7548 8.52381 14.5555 9.3601 14.3993ZM19.9187 40C10.8485 39.9898 3.49811 32.6395 3.48788 23.5691C3.44318 20.9193 4.04077 18.2981 5.22953 15.9295C7.14362 16.643 9.13936 17.1146 11.1703 17.3333C12.2812 17.4847 13.4421 17.6019 14.6179 17.6804C16.2546 17.7954 18.0384 17.854 19.9187 17.854C21.3225 17.854 22.5819 17.8254 23.7671 17.7676C24.8994 17.714 26.0153 17.6312 27.0847 17.5219C29.6542 17.3437 32.1865 16.8078 34.6078 15.9296C35.7966 18.2982 36.3942 20.9194 36.3495 23.5692C36.3393 32.6394 28.989 39.9898 19.9187 40ZM32.9549 14.9965C31.386 15.4489 29.7825 15.7707 28.1606 15.9588L28.9464 14.1442C30.3018 14.3284 31.6417 14.6133 32.9549 14.9965ZM26.5254 16.1395C25.9744 16.1919 25.4143 16.2366 24.8451 16.2738L28.0413 8.82138C28.286 8.87592 28.5267 8.94757 28.7614 9.03571C29.0018 9.13189 29.2348 9.2455 29.4586 9.37576L26.5254 16.1395ZM29.2779 7.70974C28.21 7.31485 27.0686 7.15857 25.9338 7.25179L25.9567 7.19389C27.6712 2.88259 30.4673 0.500073 31.9261 1.05945H31.9311H31.9382C32.3464 1.25182 32.6601 1.60007 32.8091 2.02599C33.5284 3.67622 33.2377 6.63303 32.0775 9.55914L32.0475 9.63486C31.2787 8.79388 30.3324 8.13457 29.2772 7.70459L29.2779 7.70974ZM39.535 12.4433L39.5036 12.4519C38.0742 10.9579 36.0933 10.1173 34.0257 10.1273C33.7993 10.1273 33.5878 10.1409 33.3827 10.1559L33.4084 10.0923C34.5586 7.19686 34.9122 4.30576 34.3972 2.27907C36.5218 3.49838 38.2276 5.33238 39.29 7.5398C40.0297 9.07251 40.1187 10.8392 39.5364 12.4384L39.535 12.4433Z" fill="#CFDBEA"/>
</g>
<defs>
<clipPath id="clip0_16_7043">
<rect width="40" height="40" fill="white"/>
</clipPath>
</defs>
</svg>
